<svg version="1.1" xmlns="http://www.w3.org/2000/svg" viewBox="-2332.6761464223105 -6588.61654581992 10944.794798871544 10944.788115594496"><desc>Created with Snap</desc><defs></defs><g><g transform="matrix(27.3747,0,0,27.3747,-2335.2486,-6617.4109)">
<g id="gSkz4259q51dm">
	<polygon points="30.20602,218.99388 30.20602,219.85374 11.31601,200.96385 11.74606,200.53392 	" fill="#e0aaff" style=""></polygon>
	<polygon points="47.89609,236.68382 47.89609,237.54393 39.20602,228.85374 39.20602,227.99388 	" fill="#e0aaff" style=""></polygon>
	<polygon points="154.84604,343.63376 153.98593,343.63376 56.89609,246.54393 56.89609,245.68382 	" fill="#e0aaff" style=""></polygon>
	<polygon points="172.53598,361.32394 171.67612,361.32394 162.98593,352.63376 163.84604,352.63376 	" fill="#e0aaff" style=""></polygon>
	<g>
		<path fill="#e0aaff" d="M369.78598,182.06383V30.74388H218.46591L199.99619,12.2739l-18.47021,18.46997H30.20602v151.32996
			l-18.45996,18.46008l18.45996,18.45996v151.33006h151.32996l18.46021,18.45996l18.46973-18.45996h151.32007V218.99388
			l18.46997-18.45996L369.78598,182.06383z M39.20602,361.32394V227.99388l8.69006,8.68994v115.94994h115.94995l8.68994,8.69019
			H39.20602z M154.84604,343.63376H56.89609v-97.94994L154.84604,343.63376z M56.89609,155.37376V57.43382h97.93994
			L56.89609,155.37376z M163.84604,48.43382H47.89609v115.93995l-8.69006,8.70007V39.74387h133.32996L163.84604,48.43382z
			 M360.78598,361.32394H227.46591l8.69019-8.69019h115.93994V236.68382l8.68994-8.68994V361.32394z M343.09604,245.68382v97.94994
			H245.1561L343.09604,245.68382z M245.1561,57.43382h97.93994v97.93995L245.1561,57.43382z M360.78598,173.06383l-8.68994-8.69006
			V48.43382H236.1561l-8.69019-8.68994h133.32007V173.06383z" style=""></path>
		<polygon points="172.53598,39.74387 163.84604,48.43382 172.52597,39.74387 		" fill="#e0aaff" style=""></polygon>
	</g>
	<polygon points="219.31601,370.32394 199.99619,389.64377 180.67612,370.32394 181.53598,370.32394 199.99619,388.78391 
		218.46591,370.32394 	" fill="#e0aaff" style=""></polygon>
	<polygon points="237.00595,352.63376 228.31601,361.32394 227.46591,361.32394 236.1561,352.63376 	" fill="#e0aaff" style=""></polygon>
	<polygon points="343.09604,245.68382 343.09604,246.55394 246.00595,343.63376 245.1561,343.63376 	" fill="#e0aaff" style=""></polygon>
	<polygon points="360.78598,227.99388 360.78598,228.864 352.09604,237.55394 352.09604,236.68382 	" fill="#e0aaff" style=""></polygon>
	<polygon points="388.68613,200.96385 369.78598,219.864 369.78598,218.99388 388.25595,200.53392 	" fill="#e0aaff" style=""></polygon>
</g>


<desc>Created with Snap</desc><defs></defs></g><g><g transform="matrix(1.024,0,0,-1.024,0,0)"><path d="M428 185L548 700L815 700L815 681L760 681L760 19L815 19L815 0L510 0L510 19L565 19L565 644L561 644L411 0L286 0L110 647L106 647L106 19L161 19L161 0L25 0L25 19L80 19L80 681L25 681L25 700L295 700L428 185ZM1090 235L1119 235L1119 312Q1119 407 1108 439Q1098 472 1068 472Q1050 472 1035 462Q1021 453 1021 436Q1021 420 1027 403L1052 403Q1060 382 1060 352Q1060 323 1035 301Q1010 280 972 280Q886 280 886 363Q886 486 1095 486Q1214 486 1259 445Q1305 405 1305 297L1305 94Q1305 42 1334 42Q1368 42 1374 145L1389 144Q1385 56 1356 23Q1327 -10 1261 -10Q1141 -10 1123 64Q1110 26 1084 8Q1058 -10 1008 -10Q860 -10 860 111Q860 182 916 208Q973 235 1090 235ZM1050 112Q1050 60 1055 45Q1061 30 1076 30Q1092 30 1105 55Q1119 81 1119 126L1119 219L1112 219Q1050 219 1050 128L1050 112ZM1657 458L1756 295L1874 458L1802 458L1802 476L1951 476L1951 458L1899 458L1769 274L1932 18L1984 18L1984 0L1650 0L1650 18L1721 18L1611 198L1497 18L1563 18L1563 0L1406 0L1406 18L1472 18L1599 218L1447 458L1389 458L1389 476L1727 476L1727 458L1657 458ZM2257 -10Q2128 -10 2063 56Q1999 123 1999 241Q1999 360 2071 423Q2144 486 2256 486Q2483 486 2474 258L2192 258L2192 219Q2192 121 2217 71Q2242 21 2304 21Q2420 21 2456 145L2474 142Q2455 70 2405 30Q2356 -10 2257 -10ZM2193 327L2193 278L2296 278L2296 327Q2296 408 2286 437Q2277 467 2248 467Q2220 467 2206 435Q2193 404 2193 327ZM2512 458L2512 476L2753 476L2753 384Q2769 430 2802 458Q2835 486 2902 486Q3057 486 3057 319L3057 18L3113 18L3113 0L2830 0L2830 18L2871 18L2871 343Q2871 403 2863 420Q2855 438 2834 438Q2802 438 2777 396Q2753 354 2753 294L2753 18L2796 18L2796 0L2512 0L2512 18L2567 18L2567 458L2512 458ZM3406 468Q3362 468 3343 420Q3324 372 3324 261L3324 209Q3324 110 3346 67Q3368 24 3427 24Q3486 24 3521 64Q3556 104 3566 155L3584 153Q3565 67 3514 29Q3462 -10 3371 -10Q3255 -10 3193 52Q3131 115 3131 235Q3131 356 3201 421Q3272 486 3398 486Q3487 486 3534 451Q3581 417 3581 365Q3581 313 3558 289Q3536 265 3496 265Q3457 265 3433 286Q3409 307 3409 348Q3409 366 3414 384L3447 384Q3454 404 3454 420Q3454 468 3406 468ZM3872 -10Q3743 -10 3678 56Q3614 123 3614 241Q3614 360 3686 423Q3759 486 3871 486Q4098 486 4089 258L3807 258L3807 219Q3807 121 3832 71Q3857 21 3919 21Q4035 21 4071 145L4089 142Q4070 70 4020 30Q3971 -10 3872 -10ZM3808 327L3808 278L3911 278L3911 327Q3911 408 3901 437Q3892 467 3863 467Q3835 467 3821 435Q3808 404 3808 327ZM4685 10Q4734 10 4747 28Q4761 46 4761 89L4761 283L4697 283L4697 305L4985 305L4985 283L4946 283L4946 1L4931 1Q4913 26 4880 26Q4866 26 4796 8Q4727 -10 4678 -10Q4515 -10 4425 78Q4336 166 4336 342Q4336 519 4429 615Q4523 711 4681 711Q4742 711 4803 695Q4865 680 4875 680Q4885 680 4890 684Q4895 689 4901 700L4912 700L4920 483L4902 483Q4853 580 4803 635Q4754 691 4693 691Q4540 691 4540 392L4540 313Q4540 163 4577 86Q4615 10 4685 10ZM5268 235L5297 235L5297 312Q5297 407 5286 439Q5276 472 5246 472Q5228 472 5213 462Q5199 453 5199 436Q5199 420 5205 403L5230 403Q5238 382 5238 352Q5238 323 5213 301Q5188 280 5150 280Q5064 280 5064 363Q5064 486 5273 486Q5392 486 5437 445Q5483 405 5483 297L5483 94Q5483 42 5512 42Q5546 42 5552 145L5567 144Q5563 56 5534 23Q5505 -10 5439 -10Q5319 -10 5301 64Q5288 26 5262 8Q5236 -10 5186 -10Q5038 -10 5038 111Q5038 182 5094 208Q5151 235 5268 235ZM5228 112Q5228 60 5233 45Q5239 30 5254 30Q5270 30 5283 55Q5297 81 5297 126L5297 219L5290 219Q5228 219 5228 128L5228 112ZM5613 458L5572 458L5572 476L5862 476L5862 458L5808 458L5917 126L6033 458L5966 458L5966 476L6107 476L6107 458L6057 458L5870 -81Q5837 -175 5796 -213Q5755 -250 5696 -250Q5637 -250 5603 -223Q5569 -196 5569 -154Q5569 -112 5591 -90Q5613 -68 5649 -68Q5732 -68 5732 -137Q5732 -152 5726 -173L5691 -173Q5683 -196 5689 -211Q5695 -226 5716 -226Q5757 -226 5789 -186Q5821 -145 5850 -62L5872 0L5784 0L5613 458Z" fill="#000000" style=""></path></g></g><g transform="matrix(2,0,0,2,1547.264,-1055.744)"><g transform="matrix(1.024,0,0,-1.024,0,0)"><path d="M428 185L548 700L815 700L815 681L760 681L760 19L815 19L815 0L510 0L510 19L565 19L565 644L561 644L411 0L286 0L110 647L106 647L106 19L161 19L161 0L25 0L25 19L80 19L80 681L25 681L25 700L295 700L428 185ZM1230 10Q1279 10 1292 28Q1306 46 1306 89L1306 283L1242 283L1242 305L1530 305L1530 283L1491 283L1491 1L1476 1Q1458 26 1425 26Q1411 26 1341 8Q1272 -10 1223 -10Q1060 -10 970 78Q881 166 881 342Q881 519 974 615Q1068 711 1226 711Q1287 711 1348 695Q1410 680 1420 680Q1430 680 1435 684Q1440 689 1446 700L1457 700L1465 483L1447 483Q1398 580 1348 635Q1299 691 1238 691Q1085 691 1085 392L1085 313Q1085 163 1122 86Q1160 10 1230 10Z" fill="#000000" style=""></path></g></g></g></svg>